# xmcd
#
# Track frame offsets: 
#        150
#        17134
#        32903
#        51777
#        67464
#        84205
#        98461
#        117578
#        130647
#        142635
#        162264
#        178060
#        195206
#        209625
#        224205
#        237625
#        251368
#
# Disc length: 3599 seconds
#
# Revision: 0
# Processed by: cddbd v1.5.2PL0 Copyright (c) Steve Scherf et al.
# Submitted via: ExactAudioCopy v0.99pb5
#
DISCID=f50e0d11
DTITLE=Edu Magalhães - Dodói de Amor
DYEAR=2008
DGENRE=Arrocha
TTITLE0=Olha eu aí
TTITLE1=Não preciso de você
TTITLE2=Solidão
TTITLE3=A fila anda
TTITLE4=Jogo a três
TTITLE5=Dodói de amor
TTITLE6=Bebedeira e solidão
TTITLE7=Coração tá em pedaços
TTITLE8=Me diz que é pra valer
TTITLE9=Amores imortais
TTITLE10=Amor vampiro
TTITLE11=Não mereço
TTITLE12=Você me balançou
TTITLE13=Porta de bar
TTITLE14=Não me julgue
TTITLE15=Não é amor
TTITLE16=Melhor você me esquecer
EXTD=
EXTT0=
EXTT1=
EXTT2=
EXTT3=
EXTT4=
EXTT5=
EXTT6=
EXTT7=
EXTT8=
EXTT9=
EXTT10=
EXTT11=
EXTT12=
EXTT13=
EXTT14=
EXTT15=
EXTT16=
PLAYORDER=
